<svg width="601" height="465" viewBox="0 0 601 465" fill="none" xmlns="http://www.w3.org/2000/svg">
<path d="M105.751 449.179L430.333 411.486C461.503 311.043 463.788 254.761 452.321 161.244C483.274 181.494 506.755 189.914 541.319 168.573C550.885 160.635 558.394 147.98 568.024 131.753L568.542 130.88C546.018 89.0713 522.383 84.5274 468.026 97.3745C442.21 71.0115 457.568 43.7985 425.098 14.6584C395.769 7.90013 382.359 7.61089 362.275 11.5173L296.312 21.9877C281.707 38.7579 280.519 48.2869 296.312 70.1515L283.747 119.362L237.678 97.3745C216.05 104.414 204.021 108.573 193.702 140.303C202.477 157.832 218.798 171.041 255.477 196.843L226.16 343.428C188.441 396.402 161.735 419.126 105.751 449.179Z" fill="#358283"/>
<path d="M568.542 130.88C546.018 89.0713 522.383 84.5274 468.026 97.3745C442.21 71.0115 457.568 43.7985 425.098 14.6584C395.769 7.90013 382.359 7.61089 362.275 11.5173L296.312 21.9877C281.707 38.7579 280.519 48.2869 296.312 70.1515L283.747 119.362L237.678 97.3745C216.05 104.414 204.021 108.573 193.702 140.303C202.477 157.832 218.798 171.041 255.477 196.843L226.16 343.428C188.441 396.402 161.735 419.126 105.751 449.179L430.333 411.486C461.503 311.043 463.788 254.761 452.321 161.244C483.274 181.494 506.755 189.914 541.319 168.573C550.885 160.635 558.394 147.98 568.024 131.753M568.542 130.88L568.024 131.753M568.542 130.88C568.368 131.172 568.196 131.463 568.024 131.753" stroke="black"/>
<path fill-rule="evenodd" clip-rule="evenodd" d="M0.0493744 464.523C4.89575 459.671 100.612 442.687 100.612 442.687C97.5905 348.437 102.245 300.5 143.017 240.093C158.656 235.985 175.008 244.214 207.232 263.143C214.872 271.159 246.005 218.504 244.791 203.699C243.578 188.895 179.944 174.688 179.365 144.256C197 92.5949 216.94 80.4482 273.87 94.5173C282.731 85.2939 286.218 80.0205 287.197 70.2546C270.146 31.0325 278.221 18.064 323.545 10.811C369.792 -5.54227 391.623 -1.52585 428.954 10.811C470.227 21.852 474.906 33.0594 455.609 60.5495C457.825 77.5586 460.871 85.1442 470.148 94.5173C521.136 79.8361 546.053 81.9028 574.345 130.911C557.474 168.562 542.595 181.89 502.861 186.716C480.524 188.112 469.475 185.306 455.609 166.092C472.447 259.878 470.625 309.863 441.07 392.948L601 380.817V401.44C348.169 424.2 -4.797 469.376 0.0493744 464.523ZM364.739 60.5495C365.4 39.2164 368.528 29.403 380.49 16.8767C392.497 13.914 400.197 14.5626 414.415 16.8767C432.404 33.9548 439.412 43.5204 445.916 60.5495C449.599 84.9641 453.478 96.4913 470.148 105.435C517.67 89.8531 540.415 87.2637 563.307 132.124C534.412 180.491 505.653 192.053 451.974 153.961C436.912 201.099 428.676 223.904 414.415 257.077C429.152 294.506 428.031 318.258 419.261 362.62C437.817 311.359 444.109 273.925 451.974 200.06C459.109 277.215 454.882 320.506 426.53 397.801C388.082 404.207 365.794 408.197 351.412 401.44C369.892 379.579 364.401 370.144 329.603 357.767C329.805 340.15 327.057 326.076 318.699 295.898C326.083 272.447 343.124 271.837 374.432 271.635C388.14 250.343 386.43 238.606 356.258 218.257C371.109 198.655 366.256 179.619 345.354 138.19C374.454 104.28 380.922 86.911 364.739 60.5495ZM312.641 25.3686C305.852 37.7383 302.382 44.8997 293.255 55.697C287.869 46.7973 287.842 42.003 293.255 33.8605C297.678 27.8135 301.821 25.8669 312.641 25.3686ZM312.641 138.19C306.418 130.407 302.221 127.394 293.255 124.846C287.78 127.404 287.094 131.024 293.255 144.256C305.734 149.542 310.777 149.458 312.641 138.19ZM277.504 146.682C266.033 130.656 256.694 122.279 237.522 107.862L215.713 119.993C201.31 131.074 199.059 136.822 199.962 146.682C207.219 144.914 212.137 139.498 224.194 138.19L220.56 156.387C231.944 150.422 236.451 149.389 241.157 151.535C243.856 158.517 243.376 162.721 237.522 170.945C258.394 175.375 266.515 168.389 277.504 146.682ZM292.044 221.896C282.826 201.307 282.042 189.087 288.409 166.092C269.623 179.98 265.322 192.942 261.754 219.47C270.697 210.67 274.765 207.594 277.504 210.978C281.808 223.678 281.719 230.577 277.504 242.52C281.983 239.967 284.867 236.827 292.044 221.896ZM258.119 389.309C242.052 335.076 244.724 308.759 253.273 263.143C250.009 308.663 250.388 335.444 261.754 389.309C273.12 443.174 258.119 389.309 258.119 389.309ZM271.446 389.309C261.998 354.323 260.043 334.666 261.754 299.537C264.599 338.028 267.087 357.984 273.87 389.309C280.652 420.634 271.446 389.309 271.446 389.309ZM276.293 298.324C271.537 299.79 277.158 352.603 287.197 384.456C281.631 347.909 279.157 328.856 276.293 298.324ZM287.197 304.39C283.943 337.507 286.512 356.104 296.89 389.309C291.411 356.049 289.136 337.447 287.197 304.39Z" fill="white"/>
<path d="M374.432 282.553C330.607 281.149 320.001 286.866 332.026 312.881C335.367 320.109 334.819 325.441 335.661 334.005C336.503 342.57 335.661 344.476 335.661 351.702C349.052 361.146 357.978 362.242 374.432 362.62C391.271 361.825 397.789 359.566 407.145 354.128C408.714 342.265 409.042 335.826 404.722 326.226C410.845 319.16 412.661 313.532 414.415 301.963C410.346 284.067 401.728 279.697 374.432 282.553Z" fill="white"/>
<path d="M460.455 138.19C460.455 126.692 487.39 105.781 491.061 106.798C493.688 107.526 507.978 103.972 513.765 106.798C524.018 116.214 526.602 118.701 530.728 123.632C541.699 142.042 539.259 144.992 513.765 132.124C519.126 150.126 516.503 153.454 499.226 144.256C503.123 163.746 499.833 168.475 482.264 163.666C469.339 155.03 460.455 149.689 460.455 138.19Z" fill="white"/>
<path d="M451.974 124.846C451.196 135.272 449.371 139.981 441.07 144.256C430.093 147.237 427.052 144.824 428.954 130.911C439.752 122.307 444.83 120.849 451.974 124.846Z" fill="white"/>
<path d="M372.009 372.325H382.913C377.83 386.537 374.235 391.529 367.162 397.801C371.526 385.733 372.827 379.95 372.009 372.325Z" fill="white"/>
</svg>
